# xmcd
#
# Track frame offsets:
#	150
#	13859
#	25748
#	39736
#	55639
#	68317
#	83544
#	95411
#	105724
#	121240
#	134688
#	145870
#	159544
#	170945
#	180721
#
# Disc length: 2576 seconds
#
# Revision: 1
# Processed by: cddbd v1.5.2PL0 Copyright (c) Steve Scherf et al.
# Submitted via: audiograbber 1.83.01
#
DISCID=c40a0e0f
DTITLE=Various Artist - CB-E8-01
DYEAR=1900
DGENRE=Karaoke
TTITLE0=Tex Ritter and His Texans - I'm Wastin' My Tears On You
TTITLE1=Bob Wills and His Texas Playboys - Sugar Moon\nSugar Moon
TTITLE2=Kitty Wells and Red Foley - You And Me
TTITLE3=Ernest Tubb - Rainbow At Midnight
TTITLE4=Hank Williams - My Bucket's Got A Hole In It
TTITLE5=Tex Ritter and His Texans - Rye Whiskey
TTITLE6=Lefty Frizzell - Give Me More, More, More (Of Your Kisses)
TTITLE7=Tennessee Ernie Ford - Kissin' Bug Boogie
TTITLE8=Red Foley - Midnight
TTITLE9=Porter Wagoner - Company's Comin'
TTITLE10=Patsy Cline - Heartaches
TTITLE11=Hank Williams - You Win Again
TTITLE12=Faron Young - If You Ain't Lovin' (You Ain't Livin')
TTITLE13=Webb Pierce - I Ain't Never
TTITLE14=Connie Smith - Run Away Little Tears
EXTD=
EXTT0=
EXTT1=
EXTT2=
EXTT3=
EXTT4=
EXTT5=
EXTT6=
EXTT7=
EXTT8=
EXTT9=
EXTT10=
EXTT11=
EXTT12=
EXTT13=
EXTT14=
PLAYORDER=
